<svg aria-hidden="true" xmlns="http://www.w3.org/2000/svg" xmlns:xlink="http://www.w3.org/1999/xlink"><symbol viewBox="0 0 448 512" id="arrowright" xmlns="http://www.w3.org/2000/svg"><path d="M438.6 278.6c12.5-12.5 12.5-32.8 0-45.3l-160-160c-12.5-12.5-32.8-12.5-45.3 0s-12.5 32.8 0 45.3L338.8 224 32 224c-17.7 0-32 14.3-32 32s14.3 32 32 32l306.7 0L233.4 393.4c-12.5 12.5-12.5 32.8 0 45.3s32.8 12.5 45.3 0l160-160z"/></symbol><symbol viewBox="0 0 24 24" id="blogger" xmlns="http://www.w3.org/2000/svg"><path d="M22.814 9.031h-1.95c-1 0-1.185-.764-1.185-1.707.001-4.045-3.272-7.324-7.308-7.324h-5.062c-4.037 0-7.309 3.279-7.309 7.324v9.352c0 4.045 3.272 7.324 7.309 7.324h9.383c4.036 0 7.308-3.279 7.308-7.324v-6.457c0-.657-.531-1.188-1.186-1.188zm-15.428-3.031h4.229c.765 0 1.385.671 1.385 1.5s-.62 1.5-1.386 1.5h-4.228c-.766 0-1.386-.671-1.386-1.5s.62-1.5 1.386-1.5zm9.134 12h-9.04c-.817 0-1.48-.672-1.48-1.5 0-.83.663-1.5 1.48-1.5h9.039c.817 0 1.48.67 1.48 1.5.001.828-.662 1.5-1.479 1.5z"/></symbol><symbol viewBox="23.667 23.667 94.662 94.662" id="dashboard" xmlns="http://www.w3.org/2000/svg"><path d="M79.133 55.32V23.666h39.196v31.652H79.133ZM23.667 70.257V23.667h39.196v46.591H23.667Zm55.466 48.07v-46.59h39.196v46.59H79.133Zm-55.466 0V86.676h39.196v31.652H23.667Zm4.585-52.507h30.025V28.25H28.252v37.57Zm55.466 47.922h30.025V76.174H83.718v37.57Zm0-63.009h30.025V28.252H83.718v22.482Zm-55.466 63.01h30.025V91.26H28.252v22.482Z" fill-rule="evenodd" data-name="Vector"/></symbol><symbol viewBox="16.862 29.286 108.269 82.829" id="engage" xmlns="http://www.w3.org/2000/svg"><path d="M106.791 73.215v-4.437h18.34v4.437h-18.34Zm6.508 38.9-14.79-10.945 2.81-3.55 14.79 10.946-2.81 3.55ZM101.023 43.93l-2.81-3.55 14.642-11.093 2.81 3.698-14.642 10.945ZM33.28 106.2V83.717h-8.283c-2.169 0-4.067-.814-5.694-2.44-1.627-1.628-2.44-3.526-2.44-5.695v-9.17c0-2.17.813-4.068 2.44-5.695 1.627-1.627 3.525-2.44 5.694-2.44h23.518l23.37-13.904V97.62l-23.37-13.903H37.718v22.482H33.28Zm49.106-18.045V53.84c1.972 1.874 3.575 4.314 4.807 7.322 1.233 3.007 1.849 6.286 1.849 9.836 0 3.55-.616 6.828-1.849 9.836-1.232 3.007-2.835 5.448-4.807 7.321ZM24.997 62.862c-.887 0-1.7.37-2.44 1.109-.74.74-1.11 1.553-1.11 2.44v9.17c0 .888.37 1.702 1.11 2.441.74.74 1.553 1.11 2.44 1.11h24.701L67.3 89.633V52.36L49.7 62.862H24.996Z" fill-rule="evenodd" data-name="Vector"/></symbol><symbol viewBox="0 0 512 512" id="facebook" xmlns="http://www.w3.org/2000/svg"><path d="M512 256C512 114.6 397.4 0 256 0S0 114.6 0 256C0 376 82.7 476.8 194.2 504.5V334.2H141.4V256h52.8V222.3c0-87.1 39.4-127.5 125-127.5c16.2 0 44.2 3.2 55.7 6.4V172c-6-.6-16.5-1-29.6-1c-42 0-58.2 15.9-58.2 57.2V256h83.6l-14.4 78.2H287V510.1C413.8 494.8 512 386.9 512 256h0z"/></symbol><symbol viewBox="17.75 23.667 106.494 100.578" id="fans" xmlns="http://www.w3.org/2000/svg"><path d="M119.66 79.133v-3.55 44.077-40.527Zm-7.248-24.553c2.07 0 3.796-.69 5.177-2.071 1.38-1.38 2.07-3.106 2.07-5.177 0-2.07-.69-3.796-2.07-5.177-1.38-1.38-3.106-2.07-5.177-2.07-2.07 0-3.797.69-5.177 2.07-1.38 1.38-2.07 3.106-2.07 5.177 0 2.07.69 3.797 2.07 5.177 1.38 1.38 3.106 2.07 5.177 2.07Zm0 4.585c-3.353 0-6.163-1.134-8.431-3.402-2.268-2.268-3.402-5.078-3.402-8.43 0-3.255 1.134-6.04 3.402-8.358 2.268-2.317 5.078-3.476 8.43-3.476 3.255 0 6.04 1.16 8.358 3.476 2.317 2.318 3.476 5.103 3.476 8.357 0 3.353-1.16 6.163-3.476 8.431-2.318 2.268-5.103 3.402-8.357 3.402ZM70.997 48.663c2.761 0 5.152-.986 7.174-2.958 2.021-1.972 3.032-4.388 3.032-7.247 0-2.761-.986-5.152-2.958-7.174-1.972-2.021-4.388-3.032-7.248-3.032-2.86 0-5.275.986-7.247 2.958-1.972 1.972-2.958 4.388-2.958 7.248 0 2.86.986 5.275 2.958 7.247 1.972 1.972 4.388 2.958 7.247 2.958Zm0 4.586c-4.141 0-7.642-1.43-10.501-4.29-2.86-2.86-4.29-6.36-4.29-10.501 0-4.043 1.43-7.519 4.29-10.428 2.86-2.909 6.36-4.363 10.501-4.363 4.043 0 7.519 1.454 10.428 4.363 2.909 2.909 4.363 6.385 4.363 10.428 0 4.141-1.454 7.642-4.363 10.501-2.909 2.86-6.385 4.29-10.428 4.29Zm-28.25 25.884c0 3.747 1.75 7.888 5.25 12.424 3.501 4.536 10.428 11.537 20.782 21.003l2.218 1.923 2.367-2.367c9.86-8.874 16.64-15.629 20.337-20.263 3.698-4.635 5.547-8.875 5.547-12.72 0-3.649-1.183-6.68-3.55-9.097-2.366-2.416-5.275-3.624-8.727-3.624-2.07 0-3.993.493-5.768 1.48a21.23 21.23 0 0 0-4.733 3.55l-5.916 6.36h.887l-6.064-6.36a21.231 21.231 0 0 0-4.733-3.55c-1.775-.987-3.649-1.48-5.62-1.48-3.55 0-6.484 1.208-8.801 3.624-2.318 2.416-3.476 5.448-3.476 9.097Zm-4.585 0c0-4.438 1.725-8.431 5.176-11.981 3.452-3.55 7.346-5.325 11.685-5.325 2.761 0 5.399.69 7.913 2.071 2.515 1.38 4.709 3.205 6.582 5.473l1.48 1.627 1.478-1.775a24.108 24.108 0 0 1 6.508-5.325c2.466-1.38 5.128-2.07 7.987-2.07 4.24 0 8.11 1.774 11.611 5.324 3.5 3.55 5.251 7.543 5.251 11.98 0 4.635-1.824 9.344-5.473 14.126-3.648 4.782-10.698 11.956-21.15 21.52l-6.213 5.77-6.064-5.473c-10.748-9.861-17.897-17.133-21.447-21.817-3.55-4.684-5.324-9.392-5.324-14.125Zm-8.58-24.553c2.072 0 3.797-.69 5.178-2.071 1.38-1.38 2.07-3.106 2.07-5.177 0-2.07-.69-3.796-2.07-5.177-1.38-1.38-3.106-2.07-5.177-2.07-2.07 0-3.797.69-5.177 2.07-1.38 1.38-2.07 3.106-2.07 5.177 0 2.07.69 3.797 2.07 5.177 1.38 1.38 3.106 2.07 5.177 2.07Zm41.859 69.665v-4.585h48.218V79.133c0-.986-.345-1.825-1.035-2.515-.69-.69-1.528-1.035-2.514-1.035h-15.087v-4.585h15.087c2.169 0 4.067.813 5.694 2.44 1.627 1.627 2.44 3.525 2.44 5.695v45.112H71.442Zm-49.106-4.585h49.106v4.585h-53.69V79.28c0-2.268.813-4.216 2.44-5.843 1.627-1.627 3.525-2.44 5.694-2.44h14.939v4.585H25.885c-.986 0-1.824.345-2.514 1.035-.69.69-1.036 1.529-1.036 2.515v40.527Zm7.248-60.495c-3.353 0-6.163-1.134-8.431-3.402-2.268-2.268-3.402-5.078-3.402-8.43 0-3.255 1.134-6.04 3.402-8.358 2.268-2.317 5.078-3.476 8.43-3.476 3.255 0 6.04 1.16 8.358 3.476 2.317 2.318 3.476 5.103 3.476 8.357 0 3.353-1.16 6.163-3.476 8.431-2.318 2.268-5.103 3.402-8.357 3.402Z" fill-rule="evenodd" data-name="Vector"/></symbol><symbol viewBox="-8388 2675 372 372" id="footertheme" xmlns="http://www.w3.org/2000/svg"><g data-name="CompositeLayer"><path d="M-8388 2865h93v182h-93v-182zM-8295 2767h93v98h-93v-98zM-8109 2675h93v97h-93v-97z" fill-rule="evenodd" data-name="Rectangle"/></g></symbol><symbol viewBox="687.188 2665.124 29.488 21.138" id="gamepadgray" xmlns="http://www.w3.org/2000/svg"><g data-name="Vector"><path d="M691.662 2686.263c-1.245 0-2.302-.435-3.171-1.304-.869-.869-1.304-1.926-1.304-3.17 0-.189.006-.37.018-.547.012-.176.041-.358.088-.546l2.96-11.837c.281-1.128.869-2.032 1.761-2.713a4.865 4.865 0 0 1 3.03-1.022h13.74c1.127 0 2.137.34 3.03 1.022.892.68 1.48 1.585 1.761 2.713l2.96 11.837a4.752 4.752 0 0 1 .14 1.127c0 1.245-.44 2.296-1.32 3.154-.881.857-1.944 1.286-3.189 1.286a4.324 4.324 0 0 1-2.378-.687 4.516 4.516 0 0 1-1.638-1.815l-1.022-2.078a1.64 1.64 0 0 0-.775-.793 2.414 2.414 0 0 0-1.092-.264h-6.694c-.376 0-.74.088-1.092.264a1.64 1.64 0 0 0-.775.793l-1.022 2.078a4.058 4.058 0 0 1-1.638 1.832c-.74.446-1.533.67-2.378.67Zm.106-1.093c.61 0 1.186-.164 1.726-.493.54-.329.951-.775 1.233-1.339l.986-2.043a3.105 3.105 0 0 1 1.18-1.304 3.173 3.173 0 0 1 1.674-.458h6.694c.61 0 1.168.165 1.673.494.505.329.91.763 1.216 1.303l.986 2.008c.282.564.693 1.01 1.233 1.34.54.328 1.128.492 1.762.492.94 0 1.744-.317 2.413-.95.67-.635 1.004-1.422 1.004-2.361 0-.118-.035-.423-.105-.916l-2.96-11.803a3.792 3.792 0 0 0-1.356-2.096 3.662 3.662 0 0 0-2.343-.828h-13.74c-.893 0-1.68.27-2.36.81a3.75 3.75 0 0 0-1.34 2.114l-2.959 11.803c0 .094-.035.387-.105.88 0 .963.34 1.762 1.021 2.396.681.634 1.504.951 2.467.951Zm11.626-11.643a.858.858 0 0 1-.282-.652c0-.235.088-.446.264-.634a.858.858 0 0 1 .652-.282c.235 0 .446.088.634.264a.858.858 0 0 1 .282.652.904.904 0 0 1-.264.634.858.858 0 0 1-.652.282.904.904 0 0 1-.634-.264Zm2.818-2.819a.858.858 0 0 1-.282-.652c0-.235.088-.446.265-.634a.858.858 0 0 1 .651-.282c.235 0 .447.088.634.265a.858.858 0 0 1 .282.651.904.904 0 0 1-.264.635.858.858 0 0 1-.652.281.904.904 0 0 1-.634-.264Zm0 5.637a.858.858 0 0 1-.282-.652c0-.235.088-.446.265-.634a.858.858 0 0 1 .651-.282c.235 0 .447.088.634.265a.858.858 0 0 1 .282.651.904.904 0 0 1-.264.634.858.858 0 0 1-.652.282.904.904 0 0 1-.634-.264Zm2.819-2.818a.858.858 0 0 1-.282-.652c0-.235.088-.446.264-.634a.858.858 0 0 1 .652-.282c.235 0 .446.088.634.264a.858.858 0 0 1 .282.652.904.904 0 0 1-.264.634.858.858 0 0 1-.652.282.904.904 0 0 1-.634-.264Zm-12.437 2.202a.524.524 0 0 1-.14-.388v-1.938h-1.938a.524.524 0 0 1-.388-.14.524.524 0 0 1-.14-.388c0-.141.046-.27.14-.388a.47.47 0 0 1 .388-.176h1.937v-1.902c0-.141.047-.27.141-.388a.47.47 0 0 1 .388-.176c.14 0 .27.059.387.176a.539.539 0 0 1 .176.388v1.902h1.903c.14 0 .27.059.387.176a.539.539 0 0 1 .177.388.47.47 0 0 1-.177.387.606.606 0 0 1-.387.141h-1.903v1.938a.47.47 0 0 1-.176.388.606.606 0 0 1-.387.14.524.524 0 0 1-.388-.14Z" fill-rule="evenodd"/><path d="M4.474 21.139c-1.245 0-2.301-.435-3.17-1.304C.434 18.966 0 17.909 0 16.665c0-.189.006-.37.018-.547.011-.176.04-.358.088-.546l2.96-11.838c.28-1.127.868-2.031 1.76-2.712A4.865 4.865 0 0 1 7.857 0h13.74c1.128 0 2.138.34 3.03 1.022.893.68 1.48 1.585 1.762 2.712l2.96 11.838a4.752 4.752 0 0 1 .14 1.127c0 1.245-.44 2.296-1.32 3.154-.882.857-1.944 1.286-3.19 1.286a4.324 4.324 0 0 1-2.377-.687 4.516 4.516 0 0 1-1.639-1.815l-1.021-2.078a1.64 1.64 0 0 0-.775-.793 2.414 2.414 0 0 0-1.093-.264H11.38c-.376 0-.74.088-1.093.264a1.64 1.64 0 0 0-.775.793l-1.021 2.078a4.058 4.058 0 0 1-1.639 1.832c-.74.446-1.532.67-2.378.67Zm.106-1.093c.61 0 1.186-.164 1.726-.493.54-.329.952-.775 1.233-1.339l.987-2.043a3.105 3.105 0 0 1 1.18-1.304 3.173 3.173 0 0 1 1.674-.458h6.693c.611 0 1.169.165 1.674.494.505.328.91.763 1.215 1.303l.987 2.008c.282.564.693 1.01 1.233 1.34.54.328 1.127.492 1.761.492.94 0 1.744-.317 2.414-.95.67-.635 1.004-1.422 1.004-2.361 0-.118-.035-.423-.106-.916l-2.96-11.803A3.792 3.792 0 0 0 23.94 1.92a3.662 3.662 0 0 0-2.342-.828H7.857c-.893 0-1.68.27-2.361.81a3.75 3.75 0 0 0-1.339 2.114L1.197 15.82c0 .094-.034.387-.105.88 0 .963.34 1.762 1.022 2.396.681.634 1.503.951 2.466.951ZM16.206 8.403a.858.858 0 0 1-.282-.652c0-.235.088-.446.265-.634a.858.858 0 0 1 .651-.282c.235 0 .447.088.635.264a.858.858 0 0 1 .281.652.904.904 0 0 1-.264.634.858.858 0 0 1-.652.282.904.904 0 0 1-.634-.264Zm2.819-2.819a.858.858 0 0 1-.282-.652c0-.235.088-.446.264-.634a.858.858 0 0 1 .652-.282c.235 0 .446.088.634.265a.858.858 0 0 1 .282.651.904.904 0 0 1-.264.634.858.858 0 0 1-.652.282.904.904 0 0 1-.634-.264Zm0 5.637a.858.858 0 0 1-.282-.652c0-.235.088-.446.264-.634a.858.858 0 0 1 .652-.282c.235 0 .446.088.634.265a.858.858 0 0 1 .282.651.904.904 0 0 1-.264.634.858.858 0 0 1-.652.282.904.904 0 0 1-.634-.264Zm2.818-2.818a.858.858 0 0 1-.282-.652c0-.235.088-.446.265-.634a.858.858 0 0 1 .651-.282c.235 0 .447.088.634.264a.858.858 0 0 1 .282.652.904.904 0 0 1-.264.634.858.858 0 0 1-.652.282.904.904 0 0 1-.634-.264ZM9.407 10.605a.524.524 0 0 1-.141-.388V8.279H7.328a.524.524 0 0 1-.388-.14.524.524 0 0 1-.14-.388c0-.141.047-.27.14-.388a.47.47 0 0 1 .388-.176h1.938V5.285c0-.141.047-.27.14-.388a.47.47 0 0 1 .388-.176c.141 0 .27.059.388.176a.539.539 0 0 1 .176.388v1.902h1.902c.141 0 .27.059.388.176a.539.539 0 0 1 .176.388.47.47 0 0 1-.176.387.606.606 0 0 1-.388.141h-1.902v1.938a.47.47 0 0 1-.176.388.606.606 0 0 1-.388.14.524.524 0 0 1-.387-.14Z" stroke-linejoin="round" stroke-linecap="round" transform="matrix(.96609 0 0 .9527 687.687 2665.624)"/></g></symbol><symbol viewBox="9.174 26.623 123.8 88.745" id="games" xmlns="http://www.w3.org/2000/svg"><path d="M27.958 115.369c-5.226 0-9.663-1.824-13.311-5.473-3.649-3.648-5.473-8.086-5.473-13.312 0-.789.025-1.553.074-2.292.05-.74.172-1.504.37-2.293l12.424-49.697c1.183-4.733 3.648-8.53 7.395-11.39 3.747-2.859 7.987-4.289 12.72-4.289h57.685c4.733 0 8.973 1.43 12.72 4.29 3.747 2.86 6.212 6.656 7.396 11.389l12.424 49.697c.197.789.345 1.578.444 2.367.098.788.148 1.577.148 2.366 0 5.226-1.85 9.639-5.547 13.238-3.698 3.6-8.16 5.399-13.386 5.399-3.648 0-6.976-.962-9.984-2.884-3.007-1.923-5.3-4.462-6.877-7.618l-4.29-8.726c-.69-1.48-1.775-2.589-3.254-3.328-1.479-.74-3.007-1.11-4.585-1.11H56.948c-1.577 0-3.106.37-4.585 1.11-1.479.74-2.563 1.848-3.254 3.328l-4.29 8.726c-1.478 3.254-3.77 5.818-6.877 7.691-3.106 1.874-6.434 2.81-9.984 2.81Zm.444-4.585c2.564 0 4.98-.69 7.248-2.071a13.553 13.553 0 0 0 5.176-5.62l4.142-8.58c1.183-2.366 2.835-4.19 4.955-5.472s4.462-1.923 7.025-1.923h28.103c2.564 0 4.906.69 7.026 2.07 2.12 1.381 3.82 3.206 5.103 5.473l4.141 8.431a13.553 13.553 0 0 0 5.177 5.62 13.963 13.963 0 0 0 7.395 2.072c3.945 0 7.322-1.332 10.132-3.994 2.81-2.662 4.216-5.966 4.216-9.91 0-.493-.148-1.775-.444-3.846l-12.424-49.549c-.888-3.55-2.786-6.483-5.695-8.8-2.909-2.318-6.188-3.476-9.836-3.476H42.158c-3.747 0-7.05 1.133-9.91 3.401-2.86 2.268-4.733 5.227-5.62 8.875l-12.425 49.55c0 .394-.148 1.626-.444 3.697 0 4.043 1.43 7.396 4.29 10.058 2.859 2.662 6.31 3.994 10.353 3.994ZM77.212 61.9c-.789-.74-1.183-1.652-1.183-2.737 0-.986.37-1.873 1.109-2.662.74-.789 1.652-1.183 2.736-1.183.986 0 1.874.37 2.663 1.109.789.74 1.183 1.652 1.183 2.736 0 .986-.37 1.874-1.11 2.663-.739.789-1.651 1.183-2.736 1.183-.986 0-1.873-.37-2.662-1.11Zm11.833-11.833c-.79-.74-1.184-1.652-1.184-2.736 0-.986.37-1.874 1.11-2.663.74-.789 1.651-1.183 2.736-1.183.986 0 1.874.37 2.662 1.11.79.739 1.184 1.65 1.184 2.736 0 .986-.37 1.873-1.11 2.662-.74.789-1.651 1.183-2.736 1.183-.986 0-1.873-.37-2.662-1.11Zm0 23.665c-.79-.74-1.184-1.651-1.184-2.736 0-.986.37-1.873 1.11-2.662.74-.79 1.651-1.184 2.736-1.184.986 0 1.874.37 2.662 1.11.79.74 1.184 1.651 1.184 2.736 0 .986-.37 1.874-1.11 2.662-.74.79-1.651 1.184-2.736 1.184-.986 0-1.873-.37-2.662-1.11ZM100.877 61.9c-.788-.74-1.183-1.652-1.183-2.737 0-.986.37-1.873 1.11-2.662.739-.789 1.651-1.183 2.736-1.183.986 0 1.873.37 2.662 1.109.789.74 1.183 1.652 1.183 2.736 0 .986-.37 1.874-1.109 2.663-.74.789-1.652 1.183-2.736 1.183-.986 0-1.874-.37-2.663-1.11Zm-52.211 9.244c-.395-.394-.592-.937-.592-1.627v-8.135h-8.135c-.69 0-1.233-.197-1.627-.592-.394-.394-.592-.936-.592-1.627 0-.591.198-1.134.592-1.627.394-.493.937-.74 1.627-.74h8.135V48.81c0-.592.197-1.134.592-1.627.394-.493.936-.74 1.627-.74.591 0 1.134.247 1.627.74.493.493.74 1.035.74 1.627v7.987h7.986c.592 0 1.134.246 1.627.74.493.492.74 1.035.74 1.626 0 .69-.247 1.233-.74 1.627-.493.395-1.035.592-1.627.592H52.66v8.135c0 .69-.246 1.233-.74 1.627-.492.394-1.035.592-1.626.592-.69 0-1.233-.198-1.627-.592Z" fill-rule="evenodd" data-name="Vector"/></symbol><symbol viewBox="0 0 448 512" id="instagram" xmlns="http://www.w3.org/2000/svg"><path d="M224.1 141c-63.6 0-114.9 51.3-114.9 114.9s51.3 114.9 114.9 114.9S339 319.5 339 255.9 287.7 141 224.1 141zm0 189.6c-41.1 0-74.7-33.5-74.7-74.7s33.5-74.7 74.7-74.7 74.7 33.5 74.7 74.7-33.6 74.7-74.7 74.7zm146.4-194.3c0 14.9-12 26.8-26.8 26.8-14.9 0-26.8-12-26.8-26.8s12-26.8 26.8-26.8 26.8 12 26.8 26.8zm76.1 27.2c-1.7-35.9-9.9-67.7-36.2-93.9-26.2-26.2-58-34.4-93.9-36.2-37-2.1-147.9-2.1-184.9 0-35.8 1.7-67.6 9.9-93.9 36.1s-34.4 58-36.2 93.9c-2.1 37-2.1 147.9 0 184.9 1.7 35.9 9.9 67.7 36.2 93.9s58 34.4 93.9 36.2c37 2.1 147.9 2.1 184.9 0 35.9-1.7 67.7-9.9 93.9-36.2 26.2-26.2 34.4-58 36.2-93.9 2.1-37 2.1-147.8 0-184.8zM398.8 388c-7.8 19.6-22.9 34.7-42.6 42.6-29.5 11.7-99.5 9-132.1 9s-102.7 2.6-132.1-9c-19.6-7.8-34.7-22.9-42.6-42.6-11.7-29.5-9-99.5-9-132.1s-2.6-102.7 9-132.1c7.8-19.6 22.9-34.7 42.6-42.6 29.5-11.7 99.5-9 132.1-9s102.7-2.6 132.1 9c19.6 7.8 34.7 22.9 42.6 42.6 11.7 29.5 9 99.5 9 132.1s2.7 102.7-9 132.1z"/></symbol><symbol viewBox="33.279 14.79 75.434 112.411" id="locations" xmlns="http://www.w3.org/2000/svg"><path d="M70.996 101.465c10.945-8.678 19.228-16.985 24.849-24.923 5.62-7.938 8.43-15.654 8.43-23.148 0-6.212-1.133-11.487-3.401-15.826s-5.079-7.84-8.431-10.502c-3.353-2.662-6.952-4.61-10.798-5.842-3.845-1.233-7.395-1.849-10.649-1.849-3.155 0-6.68.616-10.576 1.849-3.894 1.233-7.518 3.18-10.87 5.842-3.353 2.663-6.164 6.163-8.432 10.502-2.268 4.339-3.402 9.614-3.402 15.826 0 7.494 2.81 15.21 8.431 23.148 5.62 7.938 13.904 16.245 24.849 24.923Zm0 5.768C58.276 97.57 48.81 88.301 42.597 79.426c-6.212-8.874-9.318-17.552-9.318-26.032 0-6.31 1.134-11.857 3.402-16.64 2.268-4.782 5.202-8.825 8.8-12.128 3.6-3.303 7.667-5.769 12.203-7.396 4.536-1.627 8.973-2.44 13.312-2.44 4.339 0 8.776.813 13.312 2.44s8.603 4.093 12.202 7.396c3.6 3.303 6.533 7.346 8.8 12.128 2.269 4.783 3.403 10.379 3.403 16.788 0 8.382-3.106 17.01-9.318 25.884-6.213 8.875-15.679 18.144-28.399 27.807ZM65.228 58.35c-1.578-1.627-2.367-3.574-2.367-5.842s.789-4.191 2.367-5.769c1.577-1.577 3.5-2.366 5.768-2.366s4.19.789 5.768 2.366c1.578 1.578 2.367 3.5 2.367 5.769 0 2.268-.764 4.215-2.293 5.842-1.528 1.627-3.475 2.44-5.842 2.44-2.268 0-4.19-.813-5.768-2.44Zm-31.949 68.852v-4.585h75.434v4.585H33.279Z" fill-rule="evenodd" data-name="Vector"/></symbol><symbol viewBox="39.805 114.75 60.393 54.501" id="logo" xmlns="http://www.w3.org/2000/svg"><path d="m63.962 136.803.1.056a12.24 12.24 0 0 0 5.94 1.533 12.24 12.24 0 0 0 6.038-1.59l10.215-5.793 2.742 4.665-10.316 5.85-.028.017a17.591 17.591 0 0 1-8.72 2.268 17.591 17.591 0 0 1-8.612-2.285l-10.316-5.85 2.742-4.665 10.215 5.794Zm-5.01-11.198c0-5.995 4.947-10.855 11.05-10.855 6.104 0 11.051 4.86 11.051 10.855 0 .699-.067 1.382-.195 2.044-.641 3.301-2.803 6.072-5.743 7.581a11.163 11.163 0 0 1-5.113 1.23c-1.845 0-3.585-.445-5.115-1.23-2.938-1.51-5.099-4.28-5.74-7.579a10.726 10.726 0 0 1-.196-2.046Zm33.554 15.991L82.29 147.39a11.961 11.961 0 0 0-4.42 4.341 11.695 11.695 0 0 0-1.618 5.932v11.587h-5.484v-11.7a16.81 16.81 0 0 1 2.386-8.628 17.201 17.201 0 0 1 6.294-6.14l10.316-5.85 2.742 4.664Zm2.164 7.128c5.286 2.997 7.097 9.636 4.045 14.828-3.052 5.192-9.81 6.97-15.096 3.973a11.11 11.11 0 0 1-1.706-1.19 10.782 10.782 0 0 1-3.812-8.672c.072-1.694.55-3.396 1.473-4.966a10.896 10.896 0 0 1 3.64-3.735 11.24 11.24 0 0 1 9.555-1.094c.648.222 1.285.506 1.901.856Zm-47.174-7.128 2.742-4.665 10.316 5.85a17.201 17.201 0 0 1 6.373 6.274 16.81 16.81 0 0 1 2.307 8.495v11.7H63.75v-11.7a11.695 11.695 0 0 0-1.618-5.82 11.961 11.961 0 0 0-4.42-4.34l-10.216-5.794Zm8.887 25.93c-5.286 2.997-12.044 1.218-15.096-3.974-3.052-5.192-1.24-11.83 4.045-14.828.616-.35 1.253-.634 1.9-.856a11.24 11.24 0 0 1 9.556 1.094 10.896 10.896 0 0 1 3.64 3.735 10.666 10.666 0 0 1 1.473 4.966 10.782 10.782 0 0 1-3.812 8.672c-.52.441-1.09.84-1.706 1.19Zm13.62-36.627c2.976 0 5.39-2.37 5.39-5.294 0-2.924-2.414-5.295-5.39-5.295-2.978 0-5.39 2.37-5.39 5.295 0 2.924 2.412 5.294 5.39 5.294Zm-14.478 24.578c-1.488-2.532-4.784-3.4-7.362-1.938-2.578 1.462-3.462 4.7-1.973 7.233 1.488 2.532 4.785 3.4 7.363 1.937 2.578-1.461 3.46-4.7 1.972-7.232Zm36.314-1.938c-2.578-1.462-5.874-.594-7.362 1.938-1.489 2.533-.605 5.77 1.973 7.233 2.577 1.462 5.874.594 7.362-1.938 1.489-2.533.605-5.77-1.973-7.233Z" fill-rule="evenodd" data-name="Vector"/></symbol><symbol viewBox="-11733 -1675.999 1511 1080" id="maintheme" xmlns="http://www.w3.org/2000/svg"><g data-name="CompositeLayer"><path d="M-10222-596h-859.999V-761h92v-117.002h95.998v-515.997h97.001v-282h575V-1250h-93.001V-1153h93.001v557.002Zm-372-282.001h93.001v-182H-10594v182Zm93.001-182h92.999V-1158h-92.999v97.998Z" fill-rule="evenodd" data-name="Union 1"/><path d="M-11178-912v-187.999h-92v-276h93.001V-1188h92v276H-11178Z" fill-rule="evenodd" data-name="Union 2"/><path d="M-11454-1472h93v97h-93v-97zM-11640-1380h93v98h-93v-98zM-11733-1282h93v182h-93v-182z" fill-rule="evenodd" data-name="Rectangle"/></g></symbol><symbol viewBox="0 2462 1080 859.999" id="middletheme" xmlns="http://www.w3.org/2000/svg"><path d="M.003 3321.999V2462H165v92h117.003v95.998H798v97.001h282v575H654.002v-93.001h-96.999v93.001H0Zm282-372V3043h182v-93.001h-182Zm182 93.001v92.999h97.998V3043h-97.997Z" fill-rule="evenodd" data-name="Union 1"/></symbol><symbol viewBox="20.34 22.063 50.752 51.517" id="sponsor" xmlns="http://www.w3.org/2000/svg"><path d="M25.971 33.186v-8.899l8.9 4.45-8.9 4.45Zm33.372 0v-8.899l8.899 4.45-8.9 4.45Zm-15.574-2.224v-8.9l8.9 4.45-8.9 4.45ZM41.197 73.58c-3.198-.14-6.083-.417-8.656-.835-2.572-.417-4.75-.938-6.535-1.564-1.784-.626-3.175-1.32-4.171-2.086-.997-.764-1.495-1.587-1.495-2.468V43.754c0-.973.637-1.877 1.912-2.712 1.274-.834 3.036-1.564 5.284-2.19 2.248-.625 4.924-1.123 8.03-1.494 3.105-.371 6.488-.556 10.15-.556s7.045.185 10.15.556c3.106.37 5.783.869 8.03 1.494 2.248.626 4.01 1.356 5.284 2.19 1.275.835 1.912 1.739 1.912 2.712v22.873c0 .88-.498 1.704-1.495 2.468-.996.765-2.386 1.46-4.17 2.086-1.785.626-3.964 1.147-6.536 1.564-2.573.418-5.458.696-8.656.835V62.178h-9.038V73.58Zm4.519-25.029c4.589 0 8.945-.394 13.07-1.182 4.126-.788 7.51-1.923 10.151-3.406-1.112-1.391-3.673-2.573-7.682-3.546-4.01-.974-9.19-1.46-15.539-1.46-6.35 0-11.53.486-15.539 1.46-4.009.973-6.57 2.155-7.682 3.546 2.642 1.483 5.817 2.618 9.525 3.406 3.708.788 8.273 1.182 13.696 1.182Zm-6.605 22.665V60.023h13.21v11.193c4.403-.278 8.018-.846 10.846-1.703 2.827-.858 4.75-1.773 5.77-2.747v-20.44c-3.105 1.483-6.628 2.584-10.568 3.303-3.94.718-8.157 1.077-12.653 1.077s-8.714-.359-12.653-1.077c-3.94-.719-7.463-1.82-10.568-3.303v20.44c1.02.974 2.839 1.89 5.458 2.747 2.618.857 6.338 1.425 11.158 1.703Z" fill-rule="evenodd" data-name="Vector"/></symbol><symbol viewBox="19.525 31.355 102.945 79.279" id="stream" xmlns="http://www.w3.org/2000/svg"><path d="M27.513 31.355h86.97c2.268 0 4.166.764 5.694 2.293 1.529 1.528 2.293 3.426 2.293 5.694v63.305c0 2.268-.764 4.167-2.293 5.695-1.528 1.528-3.426 2.292-5.694 2.292H79.281v-3.254h35.202c1.38 0 2.514-.443 3.402-1.33.887-.888 1.331-2.022 1.331-3.403V39.342c0-1.38-.444-2.514-1.331-3.402-.888-.887-2.022-1.33-3.402-1.33h-86.97c-1.282 0-2.392.443-3.328 1.33-.937.888-1.406 2.022-1.406 3.402v11.39h-3.254v-11.39c0-2.268.765-4.166 2.293-5.694 1.528-1.529 3.427-2.293 5.695-2.293Zm-7.988 70.553c2.367 0 4.388.863 6.065 2.588 1.676 1.726 2.514 3.772 2.514 6.138h-8.579v-8.726Zm18.12-9.244c-4.882-4.98-10.921-7.52-18.12-7.618v-3.254c7.889 0 14.643 2.81 20.264 8.431 5.62 5.62 8.43 12.424 8.43 20.411h-3.253c0-7-2.44-12.99-7.322-17.97Zm.96-27.142c5.917 2.564 11.094 6.065 15.531 10.502 4.437 4.437 7.913 9.614 10.428 15.53 2.514 5.917 3.771 12.277 3.771 19.08h-3.254c0-6.31-1.183-12.227-3.55-17.749-2.366-5.522-5.62-10.353-9.761-14.495-4.142-4.141-8.974-7.42-14.495-9.836-5.522-2.415-11.439-3.623-17.75-3.623v-3.254c6.804 0 13.164 1.282 19.08 3.845Z" fill-rule="evenodd" data-name="Vector"/></symbol><symbol viewBox="17.75 29.583 106.494 82.829" id="tickets" xmlns="http://www.w3.org/2000/svg"><path d="M22.335 112.412c-1.282 0-2.366-.443-3.254-1.33-.887-.888-1.33-1.973-1.33-3.255v-18.34c3.647-1.775 6.606-4.265 8.874-7.47 2.268-3.205 3.402-6.878 3.402-11.019s-1.134-7.84-3.402-11.093c-2.268-3.254-5.226-5.72-8.875-7.396V34.17c0-1.282.444-2.367 1.331-3.254.888-.888 1.972-1.332 3.254-1.332h97.324c1.282 0 2.367.444 3.254 1.332.888.887 1.332 1.972 1.332 3.254v18.34c-3.649 1.677-6.607 4.142-8.875 7.396-2.268 3.254-3.402 6.952-3.402 11.093s1.134 7.814 3.402 11.02c2.268 3.204 5.226 5.694 8.875 7.469v18.34c0 1.282-.444 2.367-1.332 3.254-.887.888-1.972 1.331-3.254 1.331H22.335Zm0-4.585h97.324v-15.53a28.431 28.431 0 0 1-8.874-9.097c-2.268-3.697-3.402-7.765-3.402-12.202s1.134-8.505 3.402-12.203a28.432 28.432 0 0 1 8.874-9.096V34.17H22.335v15.53c3.747 2.367 6.73 5.399 8.949 9.096 2.218 3.698 3.328 7.766 3.328 12.203 0 4.437-1.11 8.505-3.328 12.202-2.219 3.698-5.202 6.73-8.949 9.097v15.53ZM69.37 95.625c-.394-.444-.591-1.01-.591-1.701 0-.592.197-1.11.591-1.553.395-.444.937-.666 1.627-.666s1.233.222 1.627.666c.395.444.592.961.592 1.553 0 .69-.197 1.257-.592 1.7-.394.445-.936.666-1.627.666-.69 0-1.232-.221-1.627-.665Zm0-23c-.394-.394-.591-.937-.591-1.627s.197-1.233.591-1.627c.395-.394.937-.592 1.627-.592s1.233.198 1.627.592c.395.394.592.937.592 1.627s-.197 1.233-.592 1.627c-.394.394-.936.592-1.627.592-.69 0-1.232-.198-1.627-.592Zm0-23a2.265 2.265 0 0 1-.591-1.553c0-.69.197-1.257.591-1.7.395-.445.937-.666 1.627-.666s1.233.221 1.627.665c.395.444.592 1.01.592 1.701 0 .592-.197 1.11-.592 1.553-.394.444-.936.666-1.627.666-.69 0-1.232-.222-1.627-.666Z" fill-rule="evenodd" data-name="Vector"/></symbol><symbol viewBox="6.359 14.051 129.42 112.411" id="trails" xmlns="http://www.w3.org/2000/svg"><path d="M89.336 30.912c-2.268 0-4.216-.813-5.843-2.44-1.627-1.627-2.44-3.624-2.44-5.99 0-2.367.789-4.364 2.366-5.99 1.578-1.628 3.55-2.441 5.917-2.441 2.268 0 4.24.813 5.916 2.44 1.676 1.627 2.515 3.624 2.515 5.99 0 2.367-.814 4.364-2.441 5.99-1.627 1.628-3.624 2.441-5.99 2.441ZM59.754 60.938l13.608 14.2v33.87h-4.586V79.722L47.773 63.748a5.027 5.027 0 0 1-1.923-2.366c-.394-.986-.591-2.071-.591-3.254 0-1.184.222-2.219.665-3.106a7.715 7.715 0 0 1 1.85-2.367l17.6-17.897c.79-.592 1.75-1.159 2.885-1.7 1.134-.543 2.292-.814 3.476-.814 1.281 0 2.49.27 3.623.813 1.134.542 2.046 1.11 2.737 1.701l11.389 11.39c2.563 2.661 5.62 4.905 9.17 6.729 3.55 1.824 7.395 2.933 11.537 3.328v4.733c-5.03-.394-9.54-1.578-13.534-3.55-3.993-1.972-7.617-4.585-10.871-7.839l-7.248-7.395-18.784 18.784ZM31.799 75.285c7.297 0 13.41 2.465 18.34 7.396 4.931 4.93 7.396 10.994 7.396 18.192 0 7.297-2.465 13.386-7.395 18.267s-11.044 7.322-18.34 7.322c-7.2 0-13.239-2.44-18.12-7.322-4.88-4.88-7.321-10.97-7.321-18.267 0-7.198 2.44-13.262 7.321-18.192s10.92-7.396 18.12-7.396Zm0 46.74c6.015 0 11.044-2.022 15.087-6.065 4.043-4.043 6.064-9.072 6.064-15.087 0-6.015-2.021-11.019-6.064-15.012-4.043-3.994-9.072-5.99-15.087-5.99-5.916 0-10.92 1.996-15.013 5.99-4.092 3.993-6.138 8.997-6.138 15.012 0 6.015 2.046 11.044 6.138 15.087 4.092 4.043 9.097 6.064 15.013 6.064Zm78.392-46.74c7.198 0 13.262 2.465 18.193 7.396 4.93 4.93 7.395 10.994 7.395 18.192 0 7.297-2.465 13.386-7.395 18.267s-11.044 7.322-18.341 7.322c-7.198 0-13.238-2.44-18.119-7.322-4.88-4.88-7.321-10.97-7.321-18.267 0-7.198 2.44-13.262 7.321-18.192s10.97-7.396 18.267-7.396Zm0 46.74c5.916 0 10.92-2.022 15.013-6.065 4.092-4.043 6.138-9.072 6.138-15.087 0-6.015-2.046-11.019-6.138-15.012-4.093-3.994-9.097-5.99-15.013-5.99-6.015 0-11.044 1.996-15.087 5.99-4.043 3.993-6.064 8.997-6.064 15.012 0 6.015 2.021 11.044 6.064 15.087 4.043 4.043 9.072 6.064 15.087 6.064Z" fill-rule="evenodd" data-name="Vector"/></symbol></svg>